# xmcd
#
# Track frame offsets: 
#        150
#        23845
#        38395
#        62908
#        78128
#        99375
#        118465
#        135020
#        153308
#
# Disc length: 2269 seconds
#
# Revision: 0
# Processed by: cddbd v1.5.2PL0 Copyright (c) Steve Scherf et al.
# Submitted via: ExactAudioCopy v1.0b4
#
DISCID=6108db09
DTITLE=Curtis Mayfield - Never Say You Can't Survive
DYEAR=1977
DGENRE=Soul
TTITLE0=Show Me Love
TTITLE1=Just Want to Be with You
TTITLE2=When We're Alone
TTITLE3=Never Say You Can't Survive
TTITLE4=I'm Gonna Win Your Love
TTITLE5=All Night Long
TTITLE6=When You Used to Be Mine
TTITLE7=Sparkle
TTITLE8=Show Me Love [single Edit]
EXTD=
EXTT0=
EXTT1=
EXTT2=
EXTT3=
EXTT4=
EXTT5=
EXTT6=
EXTT7=
EXTT8=
PLAYORDER=
